<svg xmlns="http://www.w3.org/2000/svg" width="66" height="66" viewBox="0 0 66 66" fill="none">
  <path d="M14.7285 38.416L44.4883 38.4193C44.77 38.884 45.1148 39.3154 45.5197 39.6998L47.4659 41.5471C47.234 42.4479 46.8562 43.3511 46.3267 44.2622C45.7913 45.1828 45.1727 45.9874 44.4677 46.6821L42.3165 45.965C39.7861 45.121 37.0385 46.0879 35.5256 48.3104L33.5716 51.1812C31.8689 53.6832 32.1719 57.1011 34.302 59.2396L34.9182 59.8571C33.4516 60.0098 31.9092 60.0857 30.2918 60.0857C22.4661 60.0857 16.4027 58.3074 12.1699 54.6684C9.92572 52.739 8.63477 49.9267 8.63477 46.967V44.5098C8.63477 41.1444 11.363 38.416 14.7285 38.416ZM46.5702 33.6632L47.9333 30.4486C48.5728 28.9412 50.1041 28.1211 51.6058 28.4339L51.9268 28.5184L53.6338 29.0639C55.3263 29.6047 56.6225 31.0548 57.0412 32.8753C58.036 37.2024 56.8424 42.4704 53.4608 48.6795C50.0837 54.8797 46.3828 58.6077 42.3571 59.8633C40.7942 60.3508 39.1153 59.9966 37.8521 58.9362L37.5184 58.6297L36.222 57.328C35.0985 56.2003 34.867 54.4158 35.6204 53.0199L35.8116 52.7052L37.7657 49.8343C38.5346 48.7047 39.8498 48.1703 41.117 48.4404L41.461 48.5341L45.0682 49.7371C46.5079 48.6476 47.708 47.2763 48.6692 45.6234C49.4928 44.2067 50.0317 42.7707 50.2855 41.3156L50.3887 40.5862L47.3852 37.7354C46.3958 36.7964 46.0364 35.3339 46.4408 34.0179L46.5702 33.6632ZM30.2918 5.92871C37.7706 5.92871 43.8335 11.9915 43.8335 19.4704C43.8335 26.9493 37.7706 33.0121 30.2918 33.0121C22.813 33.0121 16.7502 26.9493 16.7502 19.4704C16.7502 11.9915 22.813 5.92871 30.2918 5.92871Z" fill="black"/>
</svg>