<svg xmlns="http://www.w3.org/2000/svg" width="65" height="65" viewBox="0 0 65 65" fill="none">
  <path fill-rule="evenodd" clip-rule="evenodd" d="M4.1543 52.449C4.1543 57.0203 7.85085 60.7168 12.4222 60.7168C14.7009 60.7168 16.828 59.854 18.3275 58.3545L33.3984 43.2721L37.4378 47.3114C36.8941 49.2958 37.4143 51.5162 38.9855 53.0987L44.8436 58.9569C47.1817 61.284 50.9253 61.3073 53.2292 59.0039C55.5326 56.7002 55.5092 52.9575 53.1816 50.6184L47.3234 44.7602C45.7408 43.1892 43.5204 42.6701 41.5366 43.2135L37.4972 39.1847L40.095 36.5869C45.6221 37.9807 51.7166 36.5272 56.0282 32.3114C58.9926 29.4059 60.624 25.7207 60.8473 21.9062V21.7056C60.8473 20.4173 59.7838 19.378 58.4735 19.378C57.8234 19.378 57.2328 19.6388 56.7956 20.0515L56.0997 20.7368L53.7134 23.0748C52.2128 24.5396 50.0755 25.4013 47.7723 25.4013C45.4814 25.4013 43.4608 24.3979 41.9612 22.9214C40.485 21.4221 39.4696 19.3897 39.4696 17.099C39.4696 14.7958 40.3315 12.6583 41.7962 11.1577L44.1342 8.77117L44.8192 8.07554C45.2326 7.63835 45.4927 7.04776 45.4927 6.39724C45.4927 5.08697 44.4538 4.02344 43.1652 4.02344H42.9645C39.1503 4.24717 35.4652 5.87828 32.5596 8.84267C28.3437 13.1541 26.902 19.2488 28.2953 24.7647L25.6863 27.3736L14.7841 16.4611V13.4726L7.69758 9.92908L4.1543 13.4724L7.69758 20.559H10.6734L21.587 31.4612L6.5164 46.5436C5.01711 48.0431 4.1543 50.1702 4.1543 52.449ZM10.0597 51.8584C10.0597 50.2287 11.3827 48.9059 13.0125 48.9059C14.6424 48.9059 15.9652 50.2287 15.9652 51.8584C15.9652 53.488 14.6424 54.8114 13.0125 54.8114C11.3828 54.8114 10.0597 53.488 10.0597 51.8584Z" fill="black"/>
</svg>