<svg xmlns="http://www.w3.org/2000/svg" width="66" height="66" viewBox="0 0 66 66" fill="none">
  <path d="M31.6136 59.4175C32.4098 59.8427 33.4092 59.84 34.2055 59.4148C55.9046 47.7581 57.4457 24.9837 57.4267 18.5081C57.4246 17.9877 57.2708 17.4791 56.9841 17.0447C56.6974 16.6103 56.2903 16.269 55.8125 16.0625L34.0105 6.40458C33.6635 6.25164 33.2884 6.17288 32.9092 6.17334C32.5301 6.17381 32.1552 6.25349 31.8086 6.40729L10.1582 16.0652C9.68744 16.2718 9.28604 16.6094 9.00178 17.0377C8.71751 17.466 8.56237 17.967 8.55483 18.481C8.46274 24.9242 9.76004 47.7473 31.6136 59.4175ZM23.9923 28.3773L30.2025 34.5875L41.8294 22.9606L45.659 26.7902L30.2025 42.2467L20.1627 32.2069L23.9923 28.3773Z" fill="black"/>
</svg>